<svg clip-rule="evenodd" fill-rule="evenodd" stroke-linejoin="round" stroke-miterlimit="1.41421" viewBox="0 0 112 44" xmlns="http://www.w3.org/2000/svg"><path d="m49.847 15.768v-1.923h-.565l-2.161 2.858.663.663c.156-.203.354-.409.532-.579.442-.422.962-.789 1.531-1.019zm15.083-1.923h-10.42v1.668h.841v9.58c.616.443 1.442.401 2.142.316v2.375h-2.142c-.012 1.148-.404 2.201-1.528 2.671-.402.168-.97.265-1.425.226v1.148h9.415v-1.148c-.459.039-1.033-.058-1.44-.226-1.148-.475-1.543-1.549-1.543-2.726v-12.216h4.272c.916 0 1.752.41 2.446.983.297.245.639.58.881.901l.69-.664zm-4.913-4.636h-15.647l-2.161 2.859.663.662c.242-.316.583-.645.88-.885.696-.566 1.532-.967 2.444-.967h4.243v12.215c0 1.169-.386 2.249-1.528 2.726-.402.168-.97.266-1.425.227v1.147h9.415v-1.147c-.46.039-1.034-.059-1.44-.227-1.148-.475-1.543-1.549-1.543-2.726v-12.215h4.272c.916 0 1.752.41 2.446.982.297.245.639.58.88.901l.691-.664zm-.595 9.471c2.183.303 4.736 1.059 6.115 2.889l.868-.484-2.549-2.804c-.064.064-.142.125-.209.17-.224.153-.482.24-.755.24-.442 0-.999-.126-1.414-.275-.678-.229-1.362-.439-2.056-.614zm.917 11.096c2.278-.645 4.261-1.85 5.958-3.492l-.724-.698c-1.724 1.569-3.736 2.659-6.038 3.075.148.472.375.851.804 1.115zm-5.496-12.612c-.112.001-.223.003-.333.006v1.494c.11-.012.221-.022.333-.031zm-9.204 9.559c-.776-.904-1.221-1.955-1.281-3.149-.015-.355.017-.712.096-1.058.25-1.106.946-2.028 1.802-2.746 1.025-.86 2.296-1.457 3.566-1.856l.109-.035v2.659c-.841.747-1.505 1.748-1.505 2.916 0 .602.194 1.182.496 1.697l.044.075c-.673.359-1.262.337-1.988.248v2.227l5.274.006c.817.336 1.659.59 2.523.775-.2.87-.736 1.451-1.603 1.642-2.651-.44-5.708-1.277-7.533-3.401zm-3.313 10.586h-30.341l-11.985-15.739h33.409l-6.397-11.46h6.45l-3.874-10.11h52.325l-3.874 10.11h6.451l-6.397 11.46h33.409l-11.986 15.739h-30.34c-3.289 3.812-8.524 5.699-13.425 5.699-4.902 0-10.136-1.887-13.425-5.699zm13.425 4.335c4.736 0 9.783-1.888 12.78-5.698h30.31l9.91-13.013h-32.98l6.397-11.46h-6.111l3.874-10.11h-48.361l3.875 10.11h-6.112l6.398 11.46h-32.98l9.909 13.013h30.31c2.997 3.81 8.044 5.698 12.781 5.698zm18.916-16.735-5.06 9.06h28.22l6.92-9.06zm-37.775 0 5.06 9.06h-28.22l-6.92-9.06zm-2.587-21.75 10.963 28.41c2.119 5.492 6.318 8.154 10.511 8.143 4.194.011 8.393-2.651 10.512-8.143l10.963-28.41h-42.949" fill="#da251d"/></svg>